<svg xmlns="http://www.w3.org/2000/svg" width="59" height="30"><path fill="currentColor" fill-rule="evenodd" d="M27.557 15.985c.292-.36.635-.141.635.167l-.228 12.776c0 .282-.178.462-.381.462h-1.105c-.254 0-.393-.103-.393-.462 0 0 .138-7.168.151-8.124l.001-.094c0-.334-.304-.5-.508-.154-.295.504-.888 1.361-1.422 1.361-.558 0-.888-.847-.94-1.104-.05-.257-.278-.283-.43.026-.839 1.49-1.55 1.926-2.108 1.951-.559.026-.99-.976-1.067-1.232-.076-.257-.228-.283-.38-.026-.153.257-.483.59-.864 1.053-.38.462-1.676 1.566-2.412.95-.79-.66-.367-2.303.152-3.184.864-1.464 1.575-1.85 2.311-1.823.812.18.838-.103.99-.283.152-.18.533-.334.838-.334.432 0 .635.36.66.796.026.437.381 1.85.864 1.85.761 0 1.447-2.338 1.574-2.877a.92.92 0 0 1 .71-.719c.153-.026.458.052.458.565 0 .514.07 1.926.635 1.926.533 0 1.066-1.22 1.32-1.76.254-.538.705-1.418.94-1.707ZM13.051 6.201c5.231-1.13 8.578 3.02 5.231 7.96-2.513 3.71-4.946 5.072-5.731 5.578a.474.474 0 0 0-.213.419l-.02 2.003c-.003.141.08.357.242.442l7.347 3.628c.762.36.71.719.305 1.438-.407.72-.711.822-1.27.565l-6.196-3.03c-.253-.052-.431.051-.482.36v1.31c-.05.615-.178 1.54-2.082 1.925l.076-4.314c0-.514-.152-.668-.66-.873l-2.133-1.027c-.457-.155-.61-.617 0-.925l2.65-1.508c.105-.046.194-.2.198-.392l.123-8.91c.05-.412.025-.54.584-.874l.812-.41c.508-.18.737.05.737.564l-.178 7.73c0 .359.16.584.584.359 1.117-.59 3.58-2.979 4.444-4.622.789-1.503 1.417-5.057-1.169-5.65-2.691-.616-4.976.77-5.941 1.182-.965.41-6.145 2.824-9.547 6.009-.457.564-.66.616-.762.051.05-1.336-.203-2.825 1.625-4.057 2.052-1.383 6.781-3.927 11.426-4.93Zm23.761-2.854C38.285.574 41.235-.345 42.627.112c1.016.334 2.429 2.4 1.523 4.776-.939 2.466-3.326 4.058-4.85 5.085-.253.205-.535.57-.126 1.053.609.719 2.767 2.31 2.767 2.31 1.041.797 1.524 2.21.381 3.673 0 0-3.936 4.16-4.85 5.88-.228.385-.584.54-.863.078-.28-.463-1.092-1.85-.304-2.697 0 0 3.707-3.75 4.062-5.136.102-.462.178-1.078-.508-1.772-.685-.693-1.354-1.44-1.625-1.823-.38-.539-.533-1.207.127-1.977s3.251-3.25 3.606-5.521c.228-1.464-.203-2.183-.508-2.465-.305-.283-1.447-.976-2.564.744-1.118 1.721-1.28 3.707-1.422 4.777-.219 1.642-.252 8.736-.254 9.757v.104c0 .346.05 1.155-.61 1.694-.66.54-2.107 1.361-1.625-.025.127-.59.254-3.724.254-4.88 0-1.155.027-2.208.05-3.132.128-4.88.57-5.471 1.524-7.268ZM19.305 19.53c-.374-.217-1.193.642-1.472 1.181-.187.36-.559 1.387-.28 1.541.533.18 1.143-.847 1.371-1.233.23-.385.737-1.284.381-1.489Zm11.43-4.183c.86-.503 1.86-.378 2.199.216.339.594-.034 1.509-.896 2.012-.86.503-1.885.404-2.224-.19-.34-.595.059-1.535.92-2.038Zm23.958-5.17c.258-.454.973-.517 1.27.475.33 1.105.38 2.311 1.015 2.568.368.167.533.013.635-.077.35-.31.47.116.241.45-.203.333-.876 1.4-1.866 1.4-.99 0-1.151-1.598-1.333-2.094-.127-.347-.496-.475-.724-.013-.26.524-1.295 2.774-2.209 2.774-.533 0-.584-.68-.635-.938-.05-.256-.33-.218-.482.09-.838 1.49-1.295 1.618-1.854 1.644-.558.025-.99-.976-1.066-1.233-.077-.257-.229-.282-.381-.026-.152.257-.483.591-.863 1.053-.381.462-1.702 1.9-2.438 1.284-.79-.66-.164-2.508.356-3.39.863-1.463 2.082-2.156 2.818-2.13.533.076.559-.078.71-.257.153-.18.344-.334.636-.334.431 0 .583.539.609.975.025.437.076 1.85.559 1.85.749 0 1.343-1.925 1.574-2.427.33-.72.762-1.348 1.168-1.348.355 0 .571.436.559.782-.02.514-.178 1.028.177 1.028.305 0 .61-.591.75-.848Zm-7.389 3.107c-.375-.216-1.194.655-1.473 1.194-.186.36-.533 1.104-.254 1.259.533.18 1.041-.668 1.27-1.053.229-.385.812-1.194.457-1.4Zm10.351-6.996c.623 0 1.125.51 1.125 1.137 0 .633-.502 1.144-1.125 1.144-.626 0-1.13-.51-1.13-1.144 0-.627.504-1.137 1.13-1.137Zm0 .137a.995.995 0 0 0-.992 1 .996.996 0 0 0 .992 1.006.996.996 0 0 0 .989-1.006c0-.552-.443-1-.989-1Zm.13.365c.106 0 .213.006.307.062.095.054.142.167.142.275 0 .25-.174.343-.399.349l.381.588h-.183l-.36-.588h-.283v.588h-.154V6.79Zm-.035.113h-.36v.45h.236c.177 0 .451.03.451-.229 0-.197-.17-.22-.327-.22Z"/></svg>